<svg width="256" height="256" viewBox="0 0 256 256" fill="none" xmlns="http://www.w3.org/2000/svg">
  <rect width="256" height="256" fill="#8B4513"/>
  <circle cx="128" cy="128" r="100" fill="#CD853F"/>
  <!-- Skin -->
  <path d="M68 120C68 80 90 50 128 50C166 50 188 80 188 120V160C188 190 160 210 128 210C96 210 68 190 68 160V120Z" fill="#FFDAB9"/>
  <!-- Hair (Red) -->
  <path d="M128 40C90 40 60 60 55 100C55 100 50 130 65 140C65 140 60 110 70 90C70 90 90 60 128 60C166 60 186 90 186 90C196 110 191 140 191 140C206 130 201 100 201 100C196 60 166 40 128 40Z" fill="#8B0000"/>
  <!-- Beard (Light) -->
  <path d="M70 150C70 150 75 190 100 205C115 215 141 215 156 205C181 190 186 150 186 150C186 150 176 180 156 190C141 195 115 195 100 190C80 180 70 150 70 150Z" fill="#A0522D" opacity="0.8"/>
  <!-- Eyes -->
  <circle cx="108" cy="130" r="6" fill="#2F4F4F"/>
  <circle cx="148" cy="130" r="6" fill="#2F4F4F"/>
  <!-- Nose -->
  <path d="M128 135L122 150H134L128 135Z" fill="#E9967A"/>
  <!-- Mouth -->
  <path d="M118 170Q128 175 138 170" stroke="#8B4513" stroke-width="2" stroke-linecap="round"/>
</svg>
